<mxfile host="app.diagrams.net" modified="2023-04-23T10:01:41.380Z" agent="Mozilla/5.0 (Windows NT 10.0; Win64; x64) AppleWebKit/537.36 (KHTML, like Gecko) Chrome/112.0.0.0 Safari/537.36" etag="Nmi_I2fv-BUPUq2W6Qt0" version="21.2.1" type="github">
  <diagram id="C5RBs43oDa-KdzZeNtuy" name="Page-1">
    <mxGraphModel dx="1845" dy="540" grid="1" gridSize="10" guides="1" tooltips="1" connect="1" arrows="1" fold="1" page="1" pageScale="1" pageWidth="827" pageHeight="1169" math="0" shadow="0">
      <root>
        <mxCell id="WIyWlLk6GJQsqaUBKTNV-0" />
        <mxCell id="WIyWlLk6GJQsqaUBKTNV-1" parent="WIyWlLk6GJQsqaUBKTNV-0" />
        <mxCell id="klwGeNsfM9cUBa_eAm7o-1" value="Potential Patron" style="swimlane;childLayout=stackLayout;resizeParent=1;resizeParentMax=0;horizontal=1;startSize=20;horizontalStack=0;html=1;direction=east;" vertex="1" parent="WIyWlLk6GJQsqaUBKTNV-1">
          <mxGeometry x="-80" y="670" width="1370" height="1070" as="geometry" />
        </mxCell>
        <mxCell id="klwGeNsfM9cUBa_eAm7o-2" value="Host Mobile User" style="swimlane;startSize=40;horizontal=0;html=1;" vertex="1" parent="klwGeNsfM9cUBa_eAm7o-1">
          <mxGeometry y="20" width="1370" height="190" as="geometry" />
        </mxCell>
        <mxCell id="klwGeNsfM9cUBa_eAm7o-10" value="" style="edgeStyle=orthogonalEdgeStyle;rounded=0;orthogonalLoop=1;jettySize=auto;html=1;" edge="1" parent="klwGeNsfM9cUBa_eAm7o-2" source="klwGeNsfM9cUBa_eAm7o-5" target="klwGeNsfM9cUBa_eAm7o-6">
          <mxGeometry relative="1" as="geometry" />
        </mxCell>
        <mxCell id="klwGeNsfM9cUBa_eAm7o-5" value="START" style="strokeWidth=2;html=1;shape=mxgraph.flowchart.start_2;whiteSpace=wrap;" vertex="1" parent="klwGeNsfM9cUBa_eAm7o-2">
          <mxGeometry x="85" y="20" width="49" height="50" as="geometry" />
        </mxCell>
        <mxCell id="klwGeNsfM9cUBa_eAm7o-6" value="Login Host &lt;br&gt;Mobile" style="rounded=1;whiteSpace=wrap;html=1;absoluteArcSize=1;arcSize=14;strokeWidth=2;" vertex="1" parent="klwGeNsfM9cUBa_eAm7o-2">
          <mxGeometry x="60" y="101" width="100" height="50" as="geometry" />
        </mxCell>
        <mxCell id="klwGeNsfM9cUBa_eAm7o-15" value="Click Potential Patron" style="rounded=1;whiteSpace=wrap;html=1;absoluteArcSize=1;arcSize=14;strokeWidth=2;" vertex="1" parent="klwGeNsfM9cUBa_eAm7o-2">
          <mxGeometry x="208" y="101" width="100" height="50" as="geometry" />
        </mxCell>
        <mxCell id="klwGeNsfM9cUBa_eAm7o-17" value="" style="edgeStyle=orthogonalEdgeStyle;rounded=0;orthogonalLoop=1;jettySize=auto;html=1;" edge="1" parent="klwGeNsfM9cUBa_eAm7o-1" source="klwGeNsfM9cUBa_eAm7o-6" target="WIyWlLk6GJQsqaUBKTNV-6">
          <mxGeometry relative="1" as="geometry" />
        </mxCell>
        <mxCell id="klwGeNsfM9cUBa_eAm7o-19" value="" style="edgeStyle=orthogonalEdgeStyle;rounded=0;orthogonalLoop=1;jettySize=auto;html=1;" edge="1" parent="klwGeNsfM9cUBa_eAm7o-1" source="klwGeNsfM9cUBa_eAm7o-16" target="klwGeNsfM9cUBa_eAm7o-15">
          <mxGeometry relative="1" as="geometry" />
        </mxCell>
        <mxCell id="klwGeNsfM9cUBa_eAm7o-3" value="Host Mobile App" style="swimlane;startSize=40;horizontal=0;html=1;" vertex="1" parent="klwGeNsfM9cUBa_eAm7o-1">
          <mxGeometry y="210" width="1370" height="860" as="geometry" />
        </mxCell>
        <mxCell id="klwGeNsfM9cUBa_eAm7o-66" value="" style="verticalLabelPosition=bottom;verticalAlign=top;html=1;shape=mxgraph.basic.rect;fillColor2=none;strokeWidth=2;size=20;indent=5;dashed=1;fillColor=none;" vertex="1" parent="klwGeNsfM9cUBa_eAm7o-3">
          <mxGeometry x="340" y="-30" width="980" height="520" as="geometry" />
        </mxCell>
        <mxCell id="klwGeNsfM9cUBa_eAm7o-21" value="Y" style="edgeStyle=orthogonalEdgeStyle;rounded=0;orthogonalLoop=1;jettySize=auto;html=1;" edge="1" parent="klwGeNsfM9cUBa_eAm7o-3" source="WIyWlLk6GJQsqaUBKTNV-6" target="klwGeNsfM9cUBa_eAm7o-16">
          <mxGeometry relative="1" as="geometry" />
        </mxCell>
        <mxCell id="klwGeNsfM9cUBa_eAm7o-26" value="N" style="edgeStyle=orthogonalEdgeStyle;rounded=0;orthogonalLoop=1;jettySize=auto;html=1;" edge="1" parent="klwGeNsfM9cUBa_eAm7o-3" source="WIyWlLk6GJQsqaUBKTNV-6" target="klwGeNsfM9cUBa_eAm7o-22">
          <mxGeometry relative="1" as="geometry" />
        </mxCell>
        <mxCell id="WIyWlLk6GJQsqaUBKTNV-6" value="Inside Macau？" style="rhombus;whiteSpace=wrap;html=1;shadow=0;fontFamily=Helvetica;fontSize=12;align=center;strokeWidth=1;spacing=6;spacingTop=-4;" parent="klwGeNsfM9cUBa_eAm7o-3" vertex="1">
          <mxGeometry x="50" y="31" width="119.5" height="50" as="geometry" />
        </mxCell>
        <mxCell id="klwGeNsfM9cUBa_eAm7o-27" value="" style="edgeStyle=orthogonalEdgeStyle;rounded=0;orthogonalLoop=1;jettySize=auto;html=1;" edge="1" parent="klwGeNsfM9cUBa_eAm7o-3" source="klwGeNsfM9cUBa_eAm7o-16" target="klwGeNsfM9cUBa_eAm7o-23">
          <mxGeometry relative="1" as="geometry" />
        </mxCell>
        <mxCell id="klwGeNsfM9cUBa_eAm7o-28" value="N" style="edgeLabel;html=1;align=center;verticalAlign=middle;resizable=0;points=[];" vertex="1" connectable="0" parent="klwGeNsfM9cUBa_eAm7o-27">
          <mxGeometry x="-0.067" y="1" relative="1" as="geometry">
            <mxPoint as="offset" />
          </mxGeometry>
        </mxCell>
        <mxCell id="klwGeNsfM9cUBa_eAm7o-16" value="Inside Property？" style="rhombus;whiteSpace=wrap;html=1;shadow=0;fontFamily=Helvetica;fontSize=12;align=center;strokeWidth=1;spacing=6;spacingTop=-4;" vertex="1" parent="klwGeNsfM9cUBa_eAm7o-3">
          <mxGeometry x="203" y="30" width="110" height="51" as="geometry" />
        </mxCell>
        <mxCell id="klwGeNsfM9cUBa_eAm7o-22" value="Not allow to access Host Mobile" style="rounded=1;whiteSpace=wrap;html=1;absoluteArcSize=1;arcSize=14;strokeWidth=2;" vertex="1" parent="klwGeNsfM9cUBa_eAm7o-3">
          <mxGeometry x="59.75" y="391" width="100" height="50" as="geometry" />
        </mxCell>
        <mxCell id="klwGeNsfM9cUBa_eAm7o-23" value="Not allow to access Potential Patron" style="rounded=1;whiteSpace=wrap;html=1;absoluteArcSize=1;arcSize=14;strokeWidth=2;" vertex="1" parent="klwGeNsfM9cUBa_eAm7o-3">
          <mxGeometry x="209" y="391" width="99" height="50" as="geometry" />
        </mxCell>
        <mxCell id="klwGeNsfM9cUBa_eAm7o-34" value="Y" style="edgeStyle=orthogonalEdgeStyle;rounded=0;orthogonalLoop=1;jettySize=auto;html=1;" edge="1" parent="klwGeNsfM9cUBa_eAm7o-3" source="klwGeNsfM9cUBa_eAm7o-31" target="klwGeNsfM9cUBa_eAm7o-32">
          <mxGeometry relative="1" as="geometry" />
        </mxCell>
        <mxCell id="klwGeNsfM9cUBa_eAm7o-37" value="N" style="edgeStyle=orthogonalEdgeStyle;rounded=0;orthogonalLoop=1;jettySize=auto;html=1;" edge="1" parent="klwGeNsfM9cUBa_eAm7o-3" source="klwGeNsfM9cUBa_eAm7o-31" target="klwGeNsfM9cUBa_eAm7o-36">
          <mxGeometry relative="1" as="geometry" />
        </mxCell>
        <mxCell id="klwGeNsfM9cUBa_eAm7o-31" value="Any Open Ratings？" style="rhombus;whiteSpace=wrap;html=1;shadow=0;fontFamily=Helvetica;fontSize=12;align=center;strokeWidth=1;spacing=6;spacingTop=-4;" vertex="1" parent="klwGeNsfM9cUBa_eAm7o-3">
          <mxGeometry x="370" y="30" width="110" height="51" as="geometry" />
        </mxCell>
        <mxCell id="klwGeNsfM9cUBa_eAm7o-35" value="N" style="edgeStyle=orthogonalEdgeStyle;rounded=0;orthogonalLoop=1;jettySize=auto;html=1;" edge="1" parent="klwGeNsfM9cUBa_eAm7o-3" source="klwGeNsfM9cUBa_eAm7o-32" target="klwGeNsfM9cUBa_eAm7o-33">
          <mxGeometry relative="1" as="geometry" />
        </mxCell>
        <mxCell id="klwGeNsfM9cUBa_eAm7o-47" value="" style="edgeStyle=orthogonalEdgeStyle;rounded=0;orthogonalLoop=1;jettySize=auto;html=1;" edge="1" parent="klwGeNsfM9cUBa_eAm7o-3" source="klwGeNsfM9cUBa_eAm7o-32" target="klwGeNsfM9cUBa_eAm7o-44">
          <mxGeometry relative="1" as="geometry" />
        </mxCell>
        <mxCell id="klwGeNsfM9cUBa_eAm7o-49" value="Y" style="edgeLabel;html=1;align=left;verticalAlign=middle;resizable=0;points=[];" vertex="1" connectable="0" parent="klwGeNsfM9cUBa_eAm7o-47">
          <mxGeometry x="-0.5135" y="-2" relative="1" as="geometry">
            <mxPoint x="-15" y="-2" as="offset" />
          </mxGeometry>
        </mxCell>
        <mxCell id="klwGeNsfM9cUBa_eAm7o-32" value="Average Bet &amp;gt; X？" style="rhombus;whiteSpace=wrap;html=1;shadow=0;fontFamily=Helvetica;fontSize=12;align=center;strokeWidth=1;spacing=6;spacingTop=-4;" vertex="1" parent="klwGeNsfM9cUBa_eAm7o-3">
          <mxGeometry x="512" y="30" width="110" height="51" as="geometry" />
        </mxCell>
        <mxCell id="klwGeNsfM9cUBa_eAm7o-42" value="" style="edgeStyle=orthogonalEdgeStyle;rounded=0;orthogonalLoop=1;jettySize=auto;html=1;endArrow=none;endFill=0;" edge="1" parent="klwGeNsfM9cUBa_eAm7o-3" source="klwGeNsfM9cUBa_eAm7o-33">
          <mxGeometry relative="1" as="geometry">
            <mxPoint x="430" y="140" as="targetPoint" />
          </mxGeometry>
        </mxCell>
        <mxCell id="klwGeNsfM9cUBa_eAm7o-43" value="N" style="edgeLabel;html=1;align=center;verticalAlign=middle;resizable=0;points=[];" vertex="1" connectable="0" parent="klwGeNsfM9cUBa_eAm7o-42">
          <mxGeometry x="0.0617" relative="1" as="geometry">
            <mxPoint as="offset" />
          </mxGeometry>
        </mxCell>
        <mxCell id="klwGeNsfM9cUBa_eAm7o-48" value="Y" style="edgeStyle=orthogonalEdgeStyle;rounded=0;orthogonalLoop=1;jettySize=auto;html=1;" edge="1" parent="klwGeNsfM9cUBa_eAm7o-3" source="klwGeNsfM9cUBa_eAm7o-33" target="klwGeNsfM9cUBa_eAm7o-44">
          <mxGeometry x="-0.6436" relative="1" as="geometry">
            <mxPoint as="offset" />
          </mxGeometry>
        </mxCell>
        <mxCell id="klwGeNsfM9cUBa_eAm7o-33" value="Chip In &amp;gt; Y？" style="rhombus;whiteSpace=wrap;html=1;shadow=0;fontFamily=Helvetica;fontSize=12;align=center;strokeWidth=1;spacing=6;spacingTop=-4;" vertex="1" parent="klwGeNsfM9cUBa_eAm7o-3">
          <mxGeometry x="513" y="113" width="109" height="51" as="geometry" />
        </mxCell>
        <mxCell id="klwGeNsfM9cUBa_eAm7o-36" value="Do not display such record in Potential Patron" style="rounded=1;whiteSpace=wrap;html=1;absoluteArcSize=1;arcSize=14;strokeWidth=2;" vertex="1" parent="klwGeNsfM9cUBa_eAm7o-3">
          <mxGeometry x="375" y="232" width="100" height="50" as="geometry" />
        </mxCell>
        <mxCell id="klwGeNsfM9cUBa_eAm7o-51" value="N" style="edgeStyle=orthogonalEdgeStyle;rounded=0;orthogonalLoop=1;jettySize=auto;html=1;" edge="1" parent="klwGeNsfM9cUBa_eAm7o-3" source="klwGeNsfM9cUBa_eAm7o-44" target="klwGeNsfM9cUBa_eAm7o-50">
          <mxGeometry relative="1" as="geometry">
            <Array as="points">
              <mxPoint x="810" y="96" />
              <mxPoint x="810" y="96" />
            </Array>
          </mxGeometry>
        </mxCell>
        <mxCell id="klwGeNsfM9cUBa_eAm7o-68" style="edgeStyle=orthogonalEdgeStyle;rounded=0;orthogonalLoop=1;jettySize=auto;html=1;" edge="1" parent="klwGeNsfM9cUBa_eAm7o-3" source="klwGeNsfM9cUBa_eAm7o-44" target="klwGeNsfM9cUBa_eAm7o-36">
          <mxGeometry relative="1" as="geometry">
            <Array as="points">
              <mxPoint x="735" y="260" />
            </Array>
          </mxGeometry>
        </mxCell>
        <mxCell id="klwGeNsfM9cUBa_eAm7o-70" value="Y" style="edgeLabel;html=1;align=center;verticalAlign=middle;resizable=0;points=[];" vertex="1" connectable="0" parent="klwGeNsfM9cUBa_eAm7o-68">
          <mxGeometry x="-0.7136" y="1" relative="1" as="geometry">
            <mxPoint as="offset" />
          </mxGeometry>
        </mxCell>
        <mxCell id="klwGeNsfM9cUBa_eAm7o-44" value="Patron is VVIP？" style="rhombus;whiteSpace=wrap;html=1;shadow=0;fontFamily=Helvetica;fontSize=12;align=center;strokeWidth=1;spacing=6;spacingTop=-4;" vertex="1" parent="klwGeNsfM9cUBa_eAm7o-3">
          <mxGeometry x="680" y="70" width="110" height="51" as="geometry" />
        </mxCell>
        <mxCell id="klwGeNsfM9cUBa_eAm7o-56" value="N" style="edgeStyle=orthogonalEdgeStyle;rounded=0;orthogonalLoop=1;jettySize=auto;html=1;" edge="1" parent="klwGeNsfM9cUBa_eAm7o-3" source="klwGeNsfM9cUBa_eAm7o-50" target="klwGeNsfM9cUBa_eAm7o-52">
          <mxGeometry relative="1" as="geometry" />
        </mxCell>
        <mxCell id="klwGeNsfM9cUBa_eAm7o-71" value="Y" style="edgeStyle=orthogonalEdgeStyle;rounded=0;orthogonalLoop=1;jettySize=auto;html=1;entryX=0;entryY=0.5;entryDx=0;entryDy=0;" edge="1" parent="klwGeNsfM9cUBa_eAm7o-3" source="klwGeNsfM9cUBa_eAm7o-50" target="klwGeNsfM9cUBa_eAm7o-53">
          <mxGeometry x="-0.6647" relative="1" as="geometry">
            <Array as="points">
              <mxPoint x="885" y="189" />
            </Array>
            <mxPoint as="offset" />
          </mxGeometry>
        </mxCell>
        <mxCell id="klwGeNsfM9cUBa_eAm7o-50" value="Patron is non coded？" style="rhombus;whiteSpace=wrap;html=1;shadow=0;fontFamily=Helvetica;fontSize=12;align=center;strokeWidth=1;spacing=6;spacingTop=-4;" vertex="1" parent="klwGeNsfM9cUBa_eAm7o-3">
          <mxGeometry x="830" y="70" width="110" height="51" as="geometry" />
        </mxCell>
        <mxCell id="klwGeNsfM9cUBa_eAm7o-57" value="" style="edgeStyle=orthogonalEdgeStyle;rounded=0;orthogonalLoop=1;jettySize=auto;html=1;" edge="1" parent="klwGeNsfM9cUBa_eAm7o-3" source="klwGeNsfM9cUBa_eAm7o-52" target="klwGeNsfM9cUBa_eAm7o-53">
          <mxGeometry relative="1" as="geometry" />
        </mxCell>
        <mxCell id="klwGeNsfM9cUBa_eAm7o-52" value="Get Patron&#39;s coded sale&#39;s team" style="rounded=1;whiteSpace=wrap;html=1;absoluteArcSize=1;arcSize=14;strokeWidth=2;" vertex="1" parent="klwGeNsfM9cUBa_eAm7o-3">
          <mxGeometry x="990" y="71" width="100" height="50" as="geometry" />
        </mxCell>
        <mxCell id="klwGeNsfM9cUBa_eAm7o-58" value="" style="edgeStyle=orthogonalEdgeStyle;rounded=0;orthogonalLoop=1;jettySize=auto;html=1;" edge="1" parent="klwGeNsfM9cUBa_eAm7o-3" source="klwGeNsfM9cUBa_eAm7o-53" target="klwGeNsfM9cUBa_eAm7o-54">
          <mxGeometry relative="1" as="geometry" />
        </mxCell>
        <mxCell id="klwGeNsfM9cUBa_eAm7o-53" value="Get Patron&#39;s&amp;nbsp; Status" style="rounded=1;whiteSpace=wrap;html=1;absoluteArcSize=1;arcSize=14;strokeWidth=2;" vertex="1" parent="klwGeNsfM9cUBa_eAm7o-3">
          <mxGeometry x="990" y="164" width="100" height="50" as="geometry" />
        </mxCell>
        <mxCell id="klwGeNsfM9cUBa_eAm7o-61" value="" style="edgeStyle=orthogonalEdgeStyle;rounded=0;orthogonalLoop=1;jettySize=auto;html=1;" edge="1" parent="klwGeNsfM9cUBa_eAm7o-3" source="klwGeNsfM9cUBa_eAm7o-54" target="klwGeNsfM9cUBa_eAm7o-59">
          <mxGeometry relative="1" as="geometry" />
        </mxCell>
        <mxCell id="klwGeNsfM9cUBa_eAm7o-54" value="Check the Team x Patron status mapping" style="rounded=1;whiteSpace=wrap;html=1;absoluteArcSize=1;arcSize=14;strokeWidth=2;" vertex="1" parent="klwGeNsfM9cUBa_eAm7o-3">
          <mxGeometry x="991" y="250" width="99" height="50" as="geometry" />
        </mxCell>
        <mxCell id="klwGeNsfM9cUBa_eAm7o-62" value="" style="edgeStyle=orthogonalEdgeStyle;rounded=0;orthogonalLoop=1;jettySize=auto;html=1;" edge="1" parent="klwGeNsfM9cUBa_eAm7o-3" source="klwGeNsfM9cUBa_eAm7o-59" target="klwGeNsfM9cUBa_eAm7o-60">
          <mxGeometry relative="1" as="geometry" />
        </mxCell>
        <mxCell id="klwGeNsfM9cUBa_eAm7o-64" value="N" style="edgeStyle=orthogonalEdgeStyle;rounded=0;orthogonalLoop=1;jettySize=auto;html=1;" edge="1" parent="klwGeNsfM9cUBa_eAm7o-3" source="klwGeNsfM9cUBa_eAm7o-59" target="klwGeNsfM9cUBa_eAm7o-63">
          <mxGeometry x="-0.2919" relative="1" as="geometry">
            <mxPoint as="offset" />
          </mxGeometry>
        </mxCell>
        <mxCell id="klwGeNsfM9cUBa_eAm7o-59" value="Allow to show？" style="rhombus;whiteSpace=wrap;html=1;shadow=0;fontFamily=Helvetica;fontSize=12;align=center;strokeWidth=1;spacing=6;spacingTop=-4;" vertex="1" parent="klwGeNsfM9cUBa_eAm7o-3">
          <mxGeometry x="985.5" y="330" width="109" height="51" as="geometry" />
        </mxCell>
        <mxCell id="klwGeNsfM9cUBa_eAm7o-65" value="N" style="edgeStyle=orthogonalEdgeStyle;rounded=0;orthogonalLoop=1;jettySize=auto;html=1;" edge="1" parent="klwGeNsfM9cUBa_eAm7o-3" source="klwGeNsfM9cUBa_eAm7o-60" target="klwGeNsfM9cUBa_eAm7o-63">
          <mxGeometry relative="1" as="geometry" />
        </mxCell>
        <mxCell id="klwGeNsfM9cUBa_eAm7o-60" value="User&#39;s property includes Open rating&#39;s property？" style="rhombus;whiteSpace=wrap;html=1;shadow=0;fontFamily=Helvetica;fontSize=12;align=center;strokeWidth=1;spacing=6;spacingTop=-4;" vertex="1" parent="klwGeNsfM9cUBa_eAm7o-3">
          <mxGeometry x="985" y="410" width="109" height="51" as="geometry" />
        </mxCell>
        <mxCell id="klwGeNsfM9cUBa_eAm7o-63" value="Do not display such record in Potential Patron list" style="rounded=1;whiteSpace=wrap;html=1;absoluteArcSize=1;arcSize=14;strokeWidth=2;" vertex="1" parent="klwGeNsfM9cUBa_eAm7o-3">
          <mxGeometry x="1170" y="410" width="110" height="50" as="geometry" />
        </mxCell>
        <mxCell id="klwGeNsfM9cUBa_eAm7o-72" value="Display in Potential Patron list" style="rounded=1;whiteSpace=wrap;html=1;absoluteArcSize=1;arcSize=14;strokeWidth=2;" vertex="1" parent="klwGeNsfM9cUBa_eAm7o-3">
          <mxGeometry x="990" y="530" width="110" height="50" as="geometry" />
        </mxCell>
        <mxCell id="klwGeNsfM9cUBa_eAm7o-73" value="Patron is Non-Member?" style="rhombus;whiteSpace=wrap;html=1;shadow=0;fontFamily=Helvetica;fontSize=12;align=center;strokeWidth=1;spacing=6;spacingTop=-4;" vertex="1" parent="klwGeNsfM9cUBa_eAm7o-3">
          <mxGeometry x="985" y="610" width="109" height="51" as="geometry" />
        </mxCell>
        <mxCell id="klwGeNsfM9cUBa_eAm7o-74" value="Patron has booking check-in date&amp;lt;=today and check-out date&amp;gt;today?" style="rhombus;whiteSpace=wrap;html=1;shadow=0;fontFamily=Helvetica;fontSize=12;align=center;strokeWidth=1;spacing=6;spacingTop=-4;" vertex="1" parent="klwGeNsfM9cUBa_eAm7o-3">
          <mxGeometry x="971" y="686" width="139" height="70" as="geometry" />
        </mxCell>
      </root>
    </mxGraphModel>
  </diagram>
</mxfile>
